PathFileType	4	(X/Y/Z)	OpenSim_Sub09_EMGStiffKnee_Gyro.trc
DataRate	CameraRate	NumFrames	NumMarkers	Units	OrigDataRate	OrigDataStartFrame	OrigNumFrames
100	100	17	8	m	100	2845	7584
Frame#	Time	torso_imu_offset_imu	pelvis_imu_offset_imu	tibia_r_imu_offset_imu	femur_r_imu_offset_imu	tibia_l_imu_offset_imu	femur_l_imu_offset_imu	toes_r_imu_offset_imu	toes_l_imu_offset_imu
				X1	Y1	Z1	X2	Y2	Z2	X3	Y3	Z3	X4	Y4	Z4	X5	Y5	Z5	X6	Y6	Z6	X7	Y7	Z7	X8		Y8	Z8	

2845	28.44000000	0.08311040	-0.56370073	0.14155687	0.13611183	0.42092694	0.10910732	0.03196128	1.20253161	3.08803353	-0.00101112	-0.31475118	0.25055747	0.34356782	0.10495462	0.66815541	0.20633302	-0.02000204	0.66160261	0.21109007	2.54053812	0.78557988	-0.19188378	0.02309486	0.34592036
2846	28.45000000	0.10332426	-0.54188481	0.16048471	0.20336795	0.40788811	0.10597755	0.03135288	1.17695593	3.01248856	-0.04293164	-0.34908302	0.17164176	0.43536878	0.12304861	0.67784875	0.32162232	-0.02354984	0.64285761	0.08873309	2.57831144	0.75049300	-0.20226701	-0.00861717	0.37013713
2847	28.46000000	0.11762998	-0.52488836	0.17514799	0.27251442	0.38233054	0.09285997	0.03159152	1.16654735	2.91950641	-0.08085635	-0.38093417	0.10731502	0.49233668	0.14206611	0.72301987	0.39279392	-0.00243302	0.64478829	0.00989886	2.64208184	0.73525863	-0.19357134	-0.02905645	0.37564151
2848	28.47000000	0.14249812	-0.50486351	0.18779959	0.31218702	0.36038442	0.08956905	-0.02451429	1.12076320	2.80471819	-0.09042269	-0.40063192	0.06534559	0.49134461	0.15939996	0.77155286	0.47864343	0.02279905	0.64478597	-0.00777206	2.65817640	0.68087883	-0.18076659	-0.08793062	0.36995700
2849	28.48000000	0.17648532	-0.48509905	0.20316813	0.35212323	0.34477864	0.06198667	-0.16649135	1.02141133	2.69494457	-0.05621683	-0.40574711	0.04430712	0.48395572	0.18594002	0.79314024	0.54808060	0.05513398	0.64245217	-0.01695299	2.52445292	0.56684816	-0.16993724	-0.15344585	0.37123821
2850	28.49000000	0.22444374	-0.46316540	0.21981302	0.39987954	0.32465485	0.04836967	-0.36888920	0.84586109	2.59713338	0.02653376	-0.37043053	0.04296319	0.44699775	0.21194955	0.79041697	0.57613412	0.09385143	0.64517271	-0.03117502	2.29097290	0.41555512	-0.16362798	-0.20771216	0.36958937
2851	28.50000000	0.26938213	-0.43729082	0.23913810	0.44462515	0.30354449	0.01260332	-0.58531258	0.64652311	2.50757395	0.16853355	-0.30066726	0.06874634	0.40764520	0.20816275	0.83044383	0.56803678	0.11516554	0.66012736	-0.09292227	2.06511565	0.29961552	-0.14404637	-0.26673210	0.37249621
2852	28.51000000	0.32149703	-0.40486625	0.27623099	0.48133297	0.27441531	-0.01016396	-0.68030873	0.44404272	2.38641093	0.37093972	-0.20724023	0.11192637	0.36550051	0.19239759	0.89087748	0.55286178	0.13014363	0.67293313	-0.27696063	1.88945222	0.26017781	-0.13973014	-0.32186132	0.37129474
2853	28.52000000	0.35509210	-0.37211400	0.32145614	0.50105104	0.23604199	-0.02038768	-0.63012064	0.25155620	2.15335990	0.59482100	-0.11791034	0.17264477	0.38795808	0.19720235	0.92909409	0.53704189	0.15664802	0.66781575	-0.52590068	1.77757575	0.31359032	-0.13060339	-0.39264940	0.36717940
2854	28.53000000	0.38223880	-0.33765172	0.35515247	0.50998194	0.20225995	-0.03931811	-0.46431970	0.10887267	1.81522253	0.84135219	-0.02964681	0.23965254	0.36151721	0.23112063	0.97177310	0.52917494	0.19649444	0.66438685	-0.77337737	1.63542610	0.38054520	-0.12755226	-0.44346247	0.37557461
2855	28.54000000	0.40867500	-0.29288362	0.39436773	0.52984220	0.15830286	-0.06051497	-0.28015192	-0.01653266	1.40917926	1.07927258	0.02229899	0.31825949	0.34508327	0.24876098	1.02434893	0.48245267	0.25013746	0.66099561	-0.83024731	1.31221215	0.37527520	-0.11951336	-0.51329618	0.38072040
2856	28.55000000	0.41788247	-0.24210033	0.43430605	0.52596607	0.09597960	-0.07034642	-0.12766653	-0.12653427	1.02344497	1.27707541	0.03646662	0.39988739	0.35324491	0.27020876	1.09669682	0.42679582	0.29743227	0.67060173	-0.74163427	0.87005750	0.34021304	-0.11851505	-0.56679471	0.38938574
2857	28.56000000	0.42105445	-0.18817766	0.47198446	0.54335306	0.00584111	-0.07295421	0.03333746	-0.20118001	0.64975630	1.48245316	0.00738099	0.48152801	0.38172726	0.30173558	1.14954193	0.37355184	0.31102647	0.67360539	-0.51163075	0.49656398	0.31201228	-0.11507957	-0.62855542	0.40371534
2858	28.57000000	0.41658999	-0.12020418	0.50217902	0.57512807	-0.09584312	-0.09796452	0.25173970	-0.26602821	0.29615727	1.66995671	-0.01705431	0.57081674	0.46251374	0.35176829	1.17663091	0.30438447	0.33076752	0.67944995	-0.16925101	0.19134508	0.28890178	-0.11324511	-0.69666821	0.43540016
2859	28.58000000	0.41588477	-0.04683334	0.53006489	0.65096979	-0.19636447	-0.10716436	0.58616165	-0.31192927	-0.05815199	1.73380985	-0.01455159	0.67115517	0.48804447	0.38913112	1.21740403	0.21851480	0.36481847	0.70792484	0.13625227	-0.04675692	0.23065602	-0.12284681	-0.76372979	0.47217375
2860	28.59000000	0.42939638	0.03027308	0.55764459	0.74326418	-0.27447904	-0.13970612	1.01283092	-0.39504125	-0.43750095	1.65896336	-0.02871979	0.80038923	0.53402785	0.39258583	1.28918457	0.16177484	0.39642679	0.73465140	0.68672750	-1.40268967	-0.17887443	-0.10089218	-0.83898386	0.50102190
2861	28.60000000	0.45888715	0.10517418	0.57442647	0.82716724	-0.24404430	-0.08176828	1.61249486	-0.76991934	-0.79062169	1.53853656	-0.16055371	0.93260768	0.64939583	0.40526372	1.38686099	0.19206320	0.41340310	0.75468040	0.53003981	-3.02105654	-0.71524500	-0.11602788	-0.90980114	0.53366445
